<svg xmlns="http://www.w3.org/2000/svg" viewBox="0 0 512.003 512.003" style="enable-background:new 0 0 512.003 512.003" xml:space="preserve"><path style="fill:#cc9758" d="M369.605 306.038c-8.761-2.945-14.605-11.228-14.596-20.471v-.172c0-54.714-44.354-99.068-99.068-99.068s-99.069 44.354-99.069 99.068v.172c.008 9.241-5.837 17.526-14.596 20.471-39.361 13.232-67.677 50.505-67.479 94.371.241 53.438 43.636 97.538 97.066 98.593a99.835 99.835 0 0 0 18.091-1.281 408.741 408.741 0 0 1 131.971 0 99.9 99.9 0 0 0 18.097 1.281c53.429-1.055 96.825-45.156 97.064-98.594.196-43.866-28.12-81.14-67.481-94.37z"/><path style="fill:#b78046" d="M340.989 332.939c-6.554-2.204-10.928-8.402-10.922-15.316v-.128c0-40.94-33.188-74.128-74.128-74.128s-74.128 33.188-74.128 74.128v.128c.007 6.916-4.367 13.114-10.922 15.316-29.452 9.9-50.639 37.789-50.492 70.613.179 39.986 32.651 72.983 72.628 73.772 4.619.092 9.142-.24 13.537-.959a305.86 305.86 0 0 1 98.747 0 74.803 74.803 0 0 0 13.541.959c39.978-.79 72.449-33.787 72.628-73.773.149-32.823-21.038-60.712-50.489-70.612z"/><path style="fill:#cc9758" d="M490.79 261.942c-13.568 27.159-46.583 38.176-73.742 24.608s-38.176-46.583-24.608-73.742c13.568-27.159 63.281-71.599 90.439-58.031 27.158 13.568 21.479 80.007 7.911 107.165zM21.089 261.942c13.568 27.159 46.583 38.176 73.742 24.608s38.176-46.583 24.608-73.742S56.158 141.209 29 154.777c-27.16 13.568-21.479 80.007-7.911 107.165zM401.049 106.603c0 33.558-27.204 60.763-60.763 60.763s-60.763-27.204-60.763-60.763 27.204-94.589 60.763-94.589 60.763 61.031 60.763 94.589zM110.829 106.603c0 33.558 27.204 60.763 60.763 60.763s60.763-27.204 60.763-60.763-27.204-94.589-60.763-94.589-60.763 61.031-60.763 94.589z"/><path style="fill:#b78046" d="M480.811 257.721c-10.04 20.098-34.472 28.251-54.569 18.209-20.097-10.04-28.251-34.472-18.209-54.569 10.042-20.096 46.828-52.984 66.925-42.942s15.893 59.205 5.853 79.302zM31.068 257.721c10.04 20.098 34.472 28.251 54.569 18.209s28.251-34.472 18.209-54.569-46.829-52.983-66.926-42.941-15.893 59.204-5.852 79.301zM385.91 118.454c0 24.833-20.132 44.964-44.964 44.964s-44.964-20.132-44.964-44.964 20.132-69.996 44.964-69.996c24.832 0 44.964 45.164 44.964 69.996zM125.969 118.454c0 24.833 20.132 44.964 44.964 44.964s44.964-20.132 44.964-44.964-20.132-69.996-44.964-69.996-44.964 45.164-44.964 69.996z"/><path d="M372.795 297.211c-4.733-1.59-7.91-6.072-7.904-11.16v-.17c0-60.042-48.848-108.89-108.89-108.89s-108.89 48.848-108.89 108.89v.179c.004 5.08-3.173 9.562-7.904 11.153-44.577 14.984-74.384 56.668-74.172 103.725.145 32.443 14.766 62.963 40.115 83.735 4.196 3.436 10.385 2.825 13.822-1.372 3.439-4.196 2.823-10.383-1.371-13.822-20.805-17.048-32.804-42.061-32.923-68.629-.174-38.571 24.254-72.737 60.788-85.018 12.744-4.284 21.301-16.255 21.289-29.78v-.17c0-49.211 40.035-89.246 89.246-89.246s89.246 40.037 89.246 89.246v.161c-.013 13.533 8.542 25.506 21.289 29.789 36.531 12.281 60.96 46.445 60.788 85.015-.215 48.027-39.438 87.871-87.438 88.82-5.48.11-10.967-.28-16.32-1.154a418.327 418.327 0 0 0-135.138 0 90.265 90.265 0 0 1-16.313 1.154 88.813 88.813 0 0 1-15.106-1.6c-5.322-1.032-10.479 2.445-11.513 7.768-1.035 5.325 2.444 10.48 7.77 11.513a108.385 108.385 0 0 0 20.642 1.98c5.937 0 11.878-.479 17.688-1.429a398.682 398.682 0 0 1 128.805 0 110.301 110.301 0 0 0 19.875 1.408c58.568-1.156 106.429-49.772 106.692-108.37.21-47.059-29.598-88.743-74.173-103.726z"/><path d="M487.328 146.473c-15.525-7.756-37.014-2.572-60.501 14.601-18.112 13.242-35.437 32.462-43.111 47.826a64.987 64.987 0 0 0-5.166 14.299c-1.23 5.283 2.055 10.563 7.339 11.794 5.28 1.234 10.561-2.055 11.794-7.337a45.328 45.328 0 0 1 3.605-9.976c6.303-12.613 21.572-29.37 37.133-40.749 16.757-12.251 31.758-17.069 40.131-12.885 18.992 9.488 16.334 68.329 3.515 93.99-11.127 22.27-38.297 31.335-60.568 20.211-9.067-4.53-16.168-11.743-20.531-20.858-2.341-4.894-8.208-6.962-13.099-4.617-4.892 2.341-6.96 8.207-4.617 13.099 6.267 13.093 16.457 23.449 29.47 29.949a64.369 64.369 0 0 0 28.85 6.824c23.789-.001 46.732-13.141 58.066-35.829 7.677-15.365 12.64-40.761 12.353-63.194-.377-29.095-9.135-49.39-24.663-57.148zM99.282 295.819c15.483-7.734 27.026-21.035 32.504-37.452 5.478-16.416 4.235-33.984-3.5-49.465-7.675-15.365-25.002-34.586-43.113-47.827-23.487-17.172-44.977-22.359-60.502-14.601C9.143 154.231.385 174.526.012 203.62c-.288 22.434 4.675 47.83 12.353 63.194 11.335 22.69 34.276 35.828 58.066 35.828a64.401 64.401 0 0 0 28.851-6.823zm-69.346-37.783c-12.818-25.66-15.479-84.501 3.513-93.99 8.376-4.183 23.375.635 40.132 12.885 15.563 11.379 30.832 28.135 37.133 40.75 5.389 10.788 6.256 23.03 2.438 34.468-3.817 11.439-11.862 20.708-22.65 26.096-22.27 11.128-49.439 2.061-60.566-20.209zM340.348 177.669c38.921 0 70.584-31.663 70.584-70.584 0-36.674-29.108-104.41-70.584-104.41s-70.583 67.736-70.583 104.41c-.001 38.92 31.662 70.584 70.583 70.584zM305.932 52.04c10.677-18.889 23.221-29.721 34.415-29.721 11.195 0 23.738 10.833 34.416 29.721 9.884 17.486 16.525 39.607 16.525 55.045 0 28.09-22.852 50.941-50.941 50.941-28.088 0-50.94-22.851-50.94-50.941 0-15.438 6.642-37.559 16.525-55.045zM171.651 177.669c10.618 0 20.828-2.302 30.35-6.842 4.895-2.335 6.972-8.196 4.637-13.093s-8.195-6.973-13.093-4.637c-6.858 3.271-14.224 4.929-21.894 4.929-28.088 0-50.94-22.851-50.94-50.941 0-15.438 6.641-37.559 16.525-55.045 10.677-18.889 23.221-29.721 34.415-29.721 11.194 0 23.738 10.833 34.415 29.721 9.884 17.486 16.525 39.607 16.525 55.045 0 10.209-3.007 20.056-8.694 28.476-3.036 4.494-1.854 10.599 2.641 13.636 4.496 3.037 10.601 1.854 13.636-2.641 7.889-11.678 12.06-25.328 12.06-39.471 0-36.674-29.108-104.41-70.583-104.41s-70.583 67.736-70.583 104.41c0 38.92 31.663 70.584 70.583 70.584z"/></svg>